<svg width="80" height="80" viewBox="0 0 80 80" fill="none" xmlns="http://www.w3.org/2000/svg">
<rect width="80" height="80" rx="16" fill="#E2EEEC"/>
<path d="M32.265 55.7202C31.7301 55.7157 31.204 55.5832 30.7308 55.3337C30.2576 55.0843 29.851 54.7252 29.5451 54.2864C29.2391 53.8476 29.0427 53.3419 28.9722 52.8117C28.9017 52.2814 28.9592 51.742 29.14 51.2385L32.485 43.3335H23.97L33.97 23.3335H53.1133L46.4466 33.3335H55.6383L34.5983 54.7635C33.9715 55.3691 33.1365 55.7115 32.265 55.7202V55.7202ZM29.3633 40.0002H37.515L32.2416 52.4585L47.7016 36.6668H40.2183L46.885 26.6668H36.03L29.3633 40.0002Z" fill="#1C3A27"/>
</svg>
