<svg width="80" height="80" viewBox="0 0 80 80" fill="none" xmlns="http://www.w3.org/2000/svg">
<rect width="80" height="80" rx="16" fill="#E2EEEC"/>
<g filter="url(#filter0_d_722_318)">
<path d="M49 34.5L38.5 32L41 30.5L39 27.5L35.5 33L28 29L33.5 21H45C47.6851 22.2576 48.9001 23.2382 50 26L52 25L49 34.5Z" fill="#1C3A27"/>
<path d="M38.5 32L38.2428 31.5713L37.191 32.2023L38.3842 32.4864L38.5 32ZM49 34.5L48.8842 34.9864L49.3367 35.0941L49.4768 34.6506L49 34.5ZM52 25L52.4768 25.1506L52.8323 24.0248L51.7764 24.5528L52 25ZM50 26L49.5355 26.185C49.5873 26.315 49.6912 26.4174 49.822 26.4672C49.9527 26.5171 50.0984 26.5098 50.2236 26.4472L50 26ZM45 21L45.2121 20.5472L45.1113 20.5H45V21ZM33.5 21V20.5H33.237L33.088 20.7167L33.5 21ZM28 29L27.588 28.7167L27.271 29.1778L27.7647 29.4412L28 29ZM35.5 33L35.2647 33.4412L35.6732 33.6591L35.9218 33.2684L35.5 33ZM39 27.5L39.416 27.2226L38.9903 26.584L38.5782 27.2316L39 27.5ZM41 30.5L41.2572 30.9287L41.7069 30.659L41.416 30.2226L41 30.5ZM38.3842 32.4864L48.8842 34.9864L49.1158 34.0136L38.6158 31.5136L38.3842 32.4864ZM49.4768 34.6506L52.4768 25.1506L51.5232 24.8494L48.5232 34.3494L49.4768 34.6506ZM51.7764 24.5528L49.7764 25.5528L50.2236 26.4472L52.2236 25.4472L51.7764 24.5528ZM45 20.5H33.5V21.5H45V20.5ZM33.088 20.7167L27.588 28.7167L28.412 29.2833L33.912 21.2833L33.088 20.7167ZM27.7647 29.4412L35.2647 33.4412L35.7353 32.5588L28.2353 28.5588L27.7647 29.4412ZM35.9218 33.2684L39.4218 27.7684L38.5782 27.2316L35.0782 32.7316L35.9218 33.2684ZM38.584 27.7774L40.584 30.7774L41.416 30.2226L39.416 27.2226L38.584 27.7774ZM40.7428 30.0713L38.2428 31.5713L38.7572 32.4287L41.2572 30.9287L40.7428 30.0713ZM44.7879 21.4528C46.1177 22.0756 47.0317 22.6072 47.7478 23.2962C48.4571 23.9788 49.002 24.8455 49.5355 26.185L50.4645 25.815C49.8981 24.3926 49.2856 23.3882 48.4412 22.5756C47.6034 21.7695 46.5675 21.182 45.2121 20.5472L44.7879 21.4528Z" fill="#1C3A27"/>
</g>
<g filter="url(#filter1_d_722_318)">
<path d="M32.3313 33.1498L35.0444 43.5968L32.5476 42.0915L30.835 45.2643L37.3339 45.7782L37.3158 54.2781L27.6711 53.1694L22.2809 43.0109C22.1333 40.0495 22.43 38.5166 24.3541 36.2505L22.5334 34.9526L32.3313 33.1498Z" fill="#1C3A27"/>
<path d="M35.0444 43.5968L34.7863 44.025L35.8367 44.6583L35.5284 43.4711L35.0444 43.5968ZM32.3313 33.1498L32.8153 33.0242L32.6983 32.5739L32.2408 32.6581L32.3313 33.1498ZM22.5334 34.9526L22.4429 34.4608L21.2818 34.6744L22.2431 35.3597L22.5334 34.9526ZM24.3541 36.2505L24.7353 36.5742C24.8259 36.4675 24.8676 36.3277 24.8503 36.1888C24.833 36.0499 24.7583 35.9247 24.6444 35.8434L24.3541 36.2505ZM22.2809 43.0109L21.7815 43.0358L21.7871 43.1469L21.8393 43.2452L22.2809 43.0109ZM27.6711 53.1694L27.2294 53.4038L27.3527 53.6361L27.614 53.6661L27.6711 53.1694ZM37.3158 54.2781L37.2587 54.7749L37.8146 54.8388L37.8158 54.2792L37.3158 54.2781ZM37.3339 45.7782L37.8339 45.7792L37.8349 45.3162L37.3733 45.2797L37.3339 45.7782ZM30.835 45.2643L30.395 45.0268L30.0304 45.7023L30.7956 45.7628L30.835 45.2643ZM32.5476 42.0915L32.8058 41.6633L32.3567 41.3926L32.1076 41.854L32.5476 42.0915ZM35.5284 43.4711L32.8153 33.0242L31.8474 33.2755L34.5605 43.7225L35.5284 43.4711ZM32.2408 32.6581L22.4429 34.4608L22.6238 35.4443L32.4218 33.6416L32.2408 32.6581ZM22.2431 35.3597L24.0639 36.6577L24.6444 35.8434L22.8236 34.5454L22.2431 35.3597ZM21.8393 43.2452L27.2294 53.4038L28.1128 52.935L22.7226 42.7765L21.8393 43.2452ZM27.614 53.6661L37.2587 54.7749L37.3729 53.7814L27.7282 52.6727L27.614 53.6661ZM37.8158 54.2792L37.8339 45.7792L36.8339 45.7771L36.8158 54.2771L37.8158 54.2792ZM37.3733 45.2797L30.8744 44.7659L30.7956 45.7628L37.2945 46.2766L37.3733 45.2797ZM31.275 45.5018L32.9876 42.329L32.1076 41.854L30.395 45.0268L31.275 45.5018ZM32.2895 42.5197L34.7863 44.025L35.3026 43.1686L32.8058 41.6633L32.2895 42.5197ZM22.7803 42.986C22.7072 41.5194 22.7483 40.4628 23.0213 39.5074C23.2918 38.5608 23.8021 37.6732 24.7353 36.5742L23.973 35.9269C22.982 37.094 22.3818 38.1058 22.0598 39.2326C21.7404 40.3504 21.707 41.5409 21.7815 43.0358L22.7803 42.986Z" fill="#1C3A27"/>
</g>
<g filter="url(#filter2_d_722_318)">
<path d="M39.2927 49.4502L46.0731 41.0522L46.3494 43.9546L49.9184 43.4425L46.4634 37.9141L53.3047 32.8697L58.154 41.2801L53.1986 51.6577C50.9068 53.5389 49.4984 54.2127 46.5322 54.0152L46.5728 56.2509L39.2927 49.4502Z" fill="#1C3A27"/>
<path d="M46.0731 41.0522L46.5708 41.0048L46.4546 39.7838L45.6841 40.7381L46.0731 41.0522ZM39.2927 49.4502L38.9036 49.1361L38.6114 49.498L38.9513 49.8155L39.2927 49.4502ZM46.5728 56.2509L46.2314 56.6163L47.0941 57.4222L47.0727 56.2418L46.5728 56.2509ZM46.5322 54.0152L46.5654 53.5163C46.4257 53.507 46.2886 53.5567 46.1872 53.6532C46.0859 53.7498 46.0297 53.8844 46.0322 54.0243L46.5322 54.0152ZM53.1986 51.6577L53.5159 52.0442L53.6019 51.9736L53.6499 51.8732L53.1986 51.6577ZM58.154 41.2801L58.6052 41.4955L58.7185 41.2582L58.5871 41.0303L58.154 41.2801ZM53.3047 32.8697L53.7379 32.62L53.4584 32.1352L53.008 32.4673L53.3047 32.8697ZM46.4634 37.9141L46.1667 37.5117L45.794 37.7865L46.0394 38.1791L46.4634 37.9141ZM49.9184 43.4425L49.9895 43.9374L50.7492 43.8284L50.3424 43.1775L49.9184 43.4425ZM46.3494 43.9546L45.8517 44.002L45.9014 44.524L46.4205 44.4495L46.3494 43.9546ZM45.6841 40.7381L38.9036 49.1361L39.6817 49.7643L46.4621 41.3663L45.6841 40.7381ZM38.9513 49.8155L46.2314 56.6163L46.9141 55.8855L39.634 49.0848L38.9513 49.8155ZM47.0727 56.2418L47.0321 54.0061L46.0322 54.0243L46.0728 56.26L47.0727 56.2418ZM53.6499 51.8732L58.6052 41.4955L57.7028 41.0646L52.7474 51.4423L53.6499 51.8732ZM58.5871 41.0303L53.7379 32.62L52.8716 33.1195L57.7208 41.5298L58.5871 41.0303ZM53.008 32.4673L46.1667 37.5117L46.7601 38.3165L53.6015 33.2721L53.008 32.4673ZM46.0394 38.1791L49.4944 43.7074L50.3424 43.1775L46.8874 37.6491L46.0394 38.1791ZM49.8474 42.9475L46.2784 43.4596L46.4205 44.4495L49.9895 43.9374L49.8474 42.9475ZM46.8472 43.9072L46.5708 41.0048L45.5753 41.0996L45.8517 44.002L46.8472 43.9072ZM52.8814 51.2712C51.7464 52.2028 50.8729 52.7986 49.9426 53.1479C49.0209 53.4939 48.004 53.6121 46.5654 53.5163L46.4989 54.5141C48.0266 54.6158 49.1969 54.4959 50.294 54.0841C51.3824 53.6755 52.359 52.9937 53.5159 52.0442L52.8814 51.2712Z" fill="#1C3A27"/>
</g>
<defs>
<filter id="filter0_d_722_318" x="23.271" y="20.5" width="33.5613" height="22.5942" filterUnits="userSpaceOnUse" color-interpolation-filters="sRGB">
<feFlood flood-opacity="0" result="BackgroundImageFix"/>
<feColorMatrix in="SourceAlpha" type="matrix" values="0 0 0 0 0 0 0 0 0 0 0 0 0 0 0 0 0 0 127 0" result="hardAlpha"/>
<feOffset dy="4"/>
<feGaussianBlur stdDeviation="2"/>
<feComposite in2="hardAlpha" operator="out"/>
<feColorMatrix type="matrix" values="0 0 0 0 0 0 0 0 0 0 0 0 0 0 0 0 0 0 0.25 0"/>
<feBlend mode="normal" in2="BackgroundImageFix" result="effect1_dropShadow_722_318"/>
<feBlend mode="normal" in="SourceGraphic" in2="effect1_dropShadow_722_318" result="shape"/>
</filter>
<filter id="filter1_d_722_318" x="17.2817" y="32.5737" width="24.5532" height="30.2651" filterUnits="userSpaceOnUse" color-interpolation-filters="sRGB">
<feFlood flood-opacity="0" result="BackgroundImageFix"/>
<feColorMatrix in="SourceAlpha" type="matrix" values="0 0 0 0 0 0 0 0 0 0 0 0 0 0 0 0 0 0 127 0" result="hardAlpha"/>
<feOffset dy="4"/>
<feGaussianBlur stdDeviation="2"/>
<feComposite in2="hardAlpha" operator="out"/>
<feColorMatrix type="matrix" values="0 0 0 0 0 0 0 0 0 0 0 0 0 0 0 0 0 0 0.25 0"/>
<feBlend mode="normal" in2="BackgroundImageFix" result="effect1_dropShadow_722_318"/>
<feBlend mode="normal" in="SourceGraphic" in2="effect1_dropShadow_722_318" result="shape"/>
</filter>
<filter id="filter2_d_722_318" x="34.6113" y="32.1353" width="28.1072" height="33.2871" filterUnits="userSpaceOnUse" color-interpolation-filters="sRGB">
<feFlood flood-opacity="0" result="BackgroundImageFix"/>
<feColorMatrix in="SourceAlpha" type="matrix" values="0 0 0 0 0 0 0 0 0 0 0 0 0 0 0 0 0 0 127 0" result="hardAlpha"/>
<feOffset dy="4"/>
<feGaussianBlur stdDeviation="2"/>
<feComposite in2="hardAlpha" operator="out"/>
<feColorMatrix type="matrix" values="0 0 0 0 0 0 0 0 0 0 0 0 0 0 0 0 0 0 0.25 0"/>
<feBlend mode="normal" in2="BackgroundImageFix" result="effect1_dropShadow_722_318"/>
<feBlend mode="normal" in="SourceGraphic" in2="effect1_dropShadow_722_318" result="shape"/>
</filter>
</defs>
</svg>
