<svg width="80" height="80" viewBox="0 0 80 80" fill="none" xmlns="http://www.w3.org/2000/svg">
<rect width="80" height="80" rx="16" fill="#E2EEEC"/>
<path d="M24.1203 60L17 47.3469L22.6962 43.8961L24.1203 46.4722C25.4434 43.2153 26.735 41.639 30.6709 39.5825H40.0696V33.2557C39.1135 32.2507 38.4073 31.8341 36.6519 31.5303L36.3454 31.4529C32.4469 34.5177 30.2063 35.1785 25.8291 28.9307C31.9668 24.7634 33.8367 26.7618 36.3454 31.4529L36.6519 31.5303C38.4073 31.8341 39.1135 32.2507 40.0696 33.2557V31.8179C40.0764 30.5218 40.3777 30.0195 41.4937 29.5173L42.3481 28.9307C42.5665 20.2933 45.5624 18.6849 55.4494 20.8902C53.8855 29.3321 51.0749 31.1877 42.3481 28.9307L41.4937 29.5173C40.3777 30.0195 40.0764 30.5218 40.0696 31.8179V33.2557V39.5825H46.6203C49.5004 41.2029 49.3127 43.313 47.6754 45.3473L56.5886 35.8441C57.5301 35.5365 58.1382 35.4892 59.4367 35.8441C61.4511 36.5897 61.9081 37.4799 62 39.5825C57.0523 45.7611 53.9671 48.8808 48.0443 54.2486H28.4189L29.5316 56.2616L24.1203 60Z" fill="#1C3A27"/>
<path d="M17 47.3469L16.7409 46.9193L16.3268 47.1702L16.5643 47.5921L17 47.3469ZM24.1203 60L23.6845 60.2452L23.9534 60.723L24.4045 60.4114L24.1203 60ZM29.5316 56.2616L29.8158 56.673L30.1882 56.4158L29.9692 56.0197L29.5316 56.2616ZM22.6962 43.8961L23.1338 43.6542L22.8821 43.1989L22.4371 43.4684L22.6962 43.8961ZM24.1203 46.4722L23.6827 46.7141L23.6827 46.7141L24.1203 46.4722ZM30.6709 39.5825V39.0825H30.5481L30.4393 39.1394L30.6709 39.5825ZM46.6203 39.5825L46.8654 39.1468L46.7512 39.0825H46.6203V39.5825ZM46.6203 46.4722V46.9722H46.8178L46.962 46.8372L46.6203 46.4722ZM38.0759 46L38.1035 45.5008L37.5759 45.4716V46H38.0759ZM38.0759 46.4722H37.5759V46.9722H38.0759V46.4722ZM56.5886 35.8441L56.4333 35.3689L56.3115 35.4086L56.2239 35.5021L56.5886 35.8441ZM59.4367 35.8441L59.6103 35.3752L59.5897 35.3676L59.5686 35.3618L59.4367 35.8441ZM62 39.5825L62.3903 39.8951L62.5077 39.7484L62.4995 39.5607L62 39.5825ZM48.0443 54.2486V54.7486H48.2372L48.3801 54.6191L48.0443 54.2486ZM28.4189 54.2486L27.9813 54.4905L27.9813 54.4905L28.4189 54.2486ZM40.0696 31.8179L39.5696 31.8153V31.8179H40.0696ZM41.4937 29.5173L41.6989 29.9733L41.7397 29.9549L41.7767 29.9295L41.4937 29.5173ZM36.6519 31.5303L36.5295 32.0151L36.5479 32.0198L36.5666 32.023L36.6519 31.5303ZM28.289 30.0925C28.289 31.5652 29.4829 32.7591 30.9557 32.7591C32.4285 32.7591 33.6224 31.5652 33.6224 30.0925C33.6224 28.6197 32.4285 27.4258 30.9557 27.4258C29.4829 27.4258 28.289 28.6197 28.289 30.0925ZM55.4494 20.8902L55.941 20.9813L56.0288 20.5072L55.5582 20.4022L55.4494 20.8902ZM25.8291 28.9307L25.5483 28.517L25.1285 28.802L25.4196 29.2176L25.8291 28.9307ZM16.5643 47.5921L23.6845 60.2452L24.556 59.7548L17.4357 47.1017L16.5643 47.5921ZM24.4045 60.4114L29.8158 56.673L29.2474 55.8502L23.8361 59.5886L24.4045 60.4114ZM22.4371 43.4684L16.7409 46.9193L17.2591 47.7746L22.9553 44.3237L22.4371 43.4684ZM24.5578 46.2303L23.1338 43.6542L22.2586 44.138L23.6827 46.7141L24.5578 46.2303ZM24.5835 46.6604C25.2344 45.0581 25.8606 43.9123 26.7826 42.917C27.7075 41.9185 28.9579 41.0417 30.9024 40.0257L30.4393 39.1394C28.448 40.1798 27.0846 41.1194 26.049 42.2374C25.0104 43.3587 24.3292 44.6294 23.657 46.2841L24.5835 46.6604ZM46.3751 40.0183C47.7349 40.7833 48.2605 41.5984 48.3449 42.3644C48.4321 43.1563 48.069 44.0607 47.2858 45.0338L48.0649 45.6608C48.919 44.5996 49.4685 43.4318 49.3389 42.255C49.2064 41.0523 48.3858 40.0021 46.8654 39.1468L46.3751 40.0183ZM47.2858 45.0338C46.9981 45.3913 46.6596 45.7504 46.2785 46.1073L46.962 46.8372C47.3709 46.4543 47.7428 46.061 48.0649 45.6608L47.2858 45.0338ZM46.6478 45.973L38.1035 45.5008L38.0484 46.4992L46.5927 46.9715L46.6478 45.973ZM37.5759 46V46.4722H38.5759V46H37.5759ZM38.0759 46.9722H46.6203V45.9722H38.0759V46.9722ZM46.9849 46.8143L48.04 45.6894L47.3107 45.0053L46.2556 46.1302L46.9849 46.8143ZM48.04 45.6894L56.9533 36.1862L56.2239 35.5021L47.3107 45.0053L48.04 45.6894ZM56.7439 36.3194C57.1906 36.1734 57.5242 36.1006 57.8856 36.0956C58.2517 36.0906 58.6777 36.155 59.3049 36.3264L59.5686 35.3618C58.8973 35.1783 58.3699 35.0889 57.8719 35.0957C57.3693 35.1026 56.9281 35.2072 56.4333 35.3689L56.7439 36.3194ZM59.2632 36.313C60.2285 36.6703 60.7285 37.0301 61.0205 37.4776C61.3204 37.9372 61.4552 38.5691 61.5005 39.6044L62.4995 39.5607C62.4529 38.4933 62.3132 37.6287 61.858 36.9312C61.395 36.2216 60.6593 35.7635 59.6103 35.3752L59.2632 36.313ZM61.6097 39.27C56.6822 45.4233 53.6164 48.5238 47.7085 53.8781L48.3801 54.6191C54.3177 49.2378 57.4224 46.0989 62.3903 39.8951L61.6097 39.27ZM29.9692 56.0197L28.8565 54.0067L27.9813 54.4905L29.0941 56.5035L29.9692 56.0197ZM28.8565 54.0067L24.5578 46.2303L23.6827 46.7141L27.9813 54.4905L28.8565 54.0067ZM48.0443 53.7486H28.4189V54.7486H48.0443V53.7486ZM30.6709 40.0825H40.0696V39.0825H30.6709V40.0825ZM40.0696 40.0825H46.6203V39.0825H40.0696V40.0825ZM40.5696 31.8205C40.5729 31.197 40.6499 30.8621 40.7915 30.632C40.9291 30.4086 41.174 30.2095 41.6989 29.9733L41.2885 29.0614C40.6974 29.3274 40.2337 29.6305 39.9399 30.1078C39.6502 30.5784 39.5731 31.1427 39.5696 31.8153L40.5696 31.8205ZM40.5696 39.5825V33.2557H39.5696V39.5825H40.5696ZM40.5696 33.2557V31.8179H39.5696V33.2557H40.5696ZM40.4319 32.9111C39.9349 32.3887 39.4753 31.9899 38.8909 31.6864C38.3107 31.385 37.6385 31.1936 36.7372 31.0376L36.5666 32.023C37.4207 32.1708 37.9793 32.3397 38.43 32.5738C38.8766 32.8058 39.2482 33.1178 39.7074 33.6004L40.4319 32.9111ZM36.7743 31.0455L36.4677 30.9682L36.223 31.9377L36.5295 32.0151L36.7743 31.0455ZM36.4677 30.9682L31.0781 29.6077L30.8333 30.5773L36.223 31.9377L36.4677 30.9682ZM41.7767 29.9295L42.6311 29.3429L42.0651 28.5185L41.2107 29.1051L41.7767 29.9295ZM42.6311 29.3429L48.8969 25.0408L48.3309 24.2164L42.0651 28.5185L42.6311 29.3429ZM42.8479 28.9433C42.9571 24.626 43.7672 22.33 45.5301 21.2733C46.426 20.7362 47.6299 20.4778 49.2547 20.5015C50.8789 20.5251 52.8813 20.8297 55.3405 21.3782L55.5582 20.4022C53.0739 19.8481 50.9942 19.5267 49.2692 19.5016C47.5448 19.4765 46.1321 19.7465 45.016 20.4156C42.7546 21.7711 41.9575 24.598 41.8483 28.9181L42.8479 28.9433ZM42.2229 29.4148C46.5866 30.5433 49.6643 30.7058 51.8489 29.3471C54.0385 27.9853 55.1587 25.2041 55.941 20.9813L54.9577 20.7992C54.1762 25.0182 53.1091 27.3857 51.3208 28.4979C49.5274 29.6133 46.8363 29.575 42.4733 28.4466L42.2229 29.4148ZM36.7863 31.2172C36.1571 30.0406 35.5521 29.0018 34.8978 28.1819C34.2415 27.3594 33.511 26.7256 32.6196 26.4002C30.8211 25.7438 28.6278 26.4261 25.5483 28.517L26.11 29.3444C29.1681 27.268 30.9787 26.8658 32.2767 27.3396C32.9335 27.5793 33.5245 28.0642 34.1162 28.8056C34.7098 29.5496 35.2793 30.5197 35.9045 31.6887L36.7863 31.2172ZM25.4196 29.2176C27.6073 32.3402 29.3695 33.9125 31.1945 34.1788C33.0285 34.4464 34.7253 33.3626 36.6544 31.846L36.0364 31.0599C34.067 32.6081 32.6942 33.387 31.3389 33.1892C29.9747 32.9902 28.4281 31.7689 26.2386 28.6438L25.4196 29.2176Z" fill="#1C3A27"/>
</svg>
