<svg width="80" height="80" viewBox="0 0 80 80" fill="none" xmlns="http://www.w3.org/2000/svg">
<rect width="80" height="80" rx="16" fill="#E2EEEC"/>
<mask id="path-2-inside-1_708_300" fill="white">
<path d="M53.0433 31.6752C53.236 31.1378 53.3341 30.5711 53.3333 30.0002C53.3333 28.6741 52.8066 27.4023 51.8689 26.4647C50.9312 25.527 49.6594 25.0002 48.3333 25.0002C47.2443 25.0016 46.1863 25.3625 45.3233 26.0269C44.7095 25.1918 43.9078 24.5128 42.9831 24.0448C42.0583 23.5768 41.0364 23.333 40 23.333C38.9636 23.333 37.9417 23.5768 37.0169 24.0448C36.0922 24.5128 35.2905 25.1918 34.6767 26.0269C33.8138 25.3625 32.7557 25.0016 31.6667 25.0002C30.3406 25.0002 29.0688 25.527 28.1311 26.4647C27.1935 27.4023 26.6667 28.6741 26.6667 30.0002C26.6669 30.5683 26.765 31.1321 26.9567 31.6669C25.6306 31.6284 24.3435 32.1183 23.3787 33.0288C22.4138 33.9393 21.8501 35.1958 21.8117 36.5219C21.7732 37.8479 22.2631 39.135 23.1736 40.0999C24.0841 41.0647 25.3406 41.6284 26.6667 41.6669C27.3879 41.6632 28.0996 41.5016 28.7517 41.1935C29.3417 41.6319 30.085 42.1302 30.8517 42.6552C32.3489 43.5563 33.7403 44.6224 35 45.8335C34.6149 48.6684 34.0662 51.4787 33.3567 54.2502C33.3389 54.3221 33.331 54.3961 33.3333 54.4702C33.375 55.8202 35.6117 56.5052 39.9767 56.5102H40.0233C44.3883 56.5102 46.625 55.8202 46.6667 54.4702C46.669 54.3961 46.6611 54.3221 46.6433 54.2502C45.9466 51.5087 45.3936 48.7327 44.9867 45.9335C46.1183 44.7716 47.3995 43.7655 48.7967 42.9419C49.7267 42.3119 50.6017 41.7169 51.2583 41.1985C51.9079 41.5032 52.6159 41.663 53.3333 41.6669C54.002 41.6667 54.6639 41.5323 55.2798 41.2718C55.8956 41.0113 56.453 40.6299 56.9189 40.1502C57.3847 39.6705 57.7496 39.1022 57.992 38.479C58.2343 37.8557 58.3492 37.1902 58.3298 36.5218C58.3104 35.8534 58.1571 35.1956 57.879 34.5875C57.6009 33.9794 57.2037 33.4332 56.7108 32.9813C56.2179 32.5294 55.6393 32.181 55.0094 31.9567C54.3795 31.7323 53.7109 31.6366 53.0433 31.6752V31.6752ZM47.8617 41.5619C44.7133 43.6952 43.3333 44.7435 43.3333 45.8335C43.687 48.6602 44.218 51.4618 44.9233 54.2219C43.3456 54.7789 41.6668 54.9914 40 54.8452C38.3332 54.9914 36.6544 54.7789 35.0767 54.2219C35.782 51.4618 36.3131 48.6602 36.6667 45.8335C36.6667 44.6935 35.1783 43.5685 31.785 41.2735C31.215 40.8885 30.675 40.5202 30.2 40.1835C30.8138 39.5707 31.2582 38.8093 31.49 37.9735C31.6267 38.0285 31.77 38.0585 31.91 38.1002C34.1383 41.0902 35.85 42.6002 37.0067 42.6002C37.1294 42.601 37.2514 42.5824 37.3683 42.5452C37.8017 42.4035 38.3217 41.9935 38.3333 40.8352C38.3567 38.6152 38.35 37.1685 38.3417 36.4119C39.4279 36.7043 40.5721 36.7043 41.6583 36.4119C41.6583 37.1602 41.6433 38.6152 41.6667 40.8352C41.6783 41.9935 42.1983 42.4035 42.6317 42.5452C42.7486 42.5824 42.8706 42.601 42.9933 42.6002C44.15 42.6002 45.8617 41.0835 48.09 38.1002C48.2283 38.0585 48.3717 38.0302 48.5067 37.9752C48.7403 38.8204 49.1927 39.589 49.8183 40.2035C49.2617 40.6135 48.5767 41.0769 47.8617 41.5619V41.5619ZM36.68 37.0002C36.68 37.8185 36.68 39.0702 36.6667 40.7919C35.7215 40.0408 34.8699 39.1791 34.13 38.2252C35.0774 38.062 35.9605 37.6378 36.68 37.0002V37.0002ZM43.3333 40.7969C43.315 39.0735 43.3167 37.8219 43.32 37.0035C44.0398 37.6409 44.9227 38.0656 45.87 38.2302C45.1296 39.1836 44.278 40.0453 43.3333 40.7969V40.7969ZM53.3333 40.0002C52.8939 40.0002 52.4588 39.9133 52.0531 39.7446C51.6474 39.5758 51.279 39.3285 50.9692 39.0168C50.6594 38.7052 50.4143 38.3353 50.248 37.9286C50.0816 37.5219 49.9974 37.0863 50 36.6469C50 36.4921 49.9569 36.3404 49.8755 36.2087C49.7942 36.0771 49.6778 35.9707 49.5394 35.9015C49.4009 35.8323 49.246 35.803 49.0918 35.8169C48.9377 35.8308 48.7905 35.8873 48.6667 35.9802C48.2651 36.2686 47.8052 36.4656 47.3194 36.5575C46.8335 36.6493 46.3335 36.6336 45.8543 36.5117C45.3751 36.3897 44.9285 36.1643 44.5457 35.8514C44.1628 35.5385 43.8532 35.1455 43.6383 34.7002C43.5907 34.5949 43.5216 34.5006 43.4355 34.4234C43.3494 34.3462 43.2482 34.2878 43.1383 34.2519C43.0287 34.2157 42.9126 34.203 42.7977 34.2148C42.6828 34.2266 42.5717 34.2625 42.4717 34.3202C41.7259 34.7619 40.8751 34.995 40.0083 34.995C39.1416 34.995 38.2908 34.7619 37.545 34.3202C37.4445 34.2636 37.3333 34.2285 37.2186 34.2172C37.1038 34.2058 36.9879 34.2184 36.8783 34.2541C36.7686 34.2898 36.6675 34.3479 36.5815 34.4247C36.4954 34.5015 36.4263 34.5953 36.3783 34.7002C36.1641 35.1482 35.8539 35.5436 35.4699 35.8585C35.0858 36.1734 34.6373 36.4 34.1559 36.5222C33.6746 36.6445 33.1723 36.6595 32.6845 36.5661C32.1967 36.4727 31.7355 36.2733 31.3333 35.9819C31.2088 35.89 31.0611 35.8346 30.9069 35.822C30.7526 35.8093 30.5979 35.8399 30.46 35.9102C30.3211 35.9817 30.2046 36.0902 30.1234 36.2237C30.0423 36.3573 29.9996 36.5106 30 36.6669C30 37.3261 29.8045 37.9706 29.4382 38.5188C29.072 39.0669 28.5514 39.4942 27.9423 39.7465C27.3332 39.9987 26.663 40.0648 26.0164 39.9361C25.3698 39.8075 24.7758 39.49 24.3097 39.0239C23.8435 38.5577 23.526 37.9638 23.3974 37.3172C23.2688 36.6706 23.3348 36.0003 23.5871 35.3912C23.8394 34.7822 24.2666 34.2616 24.8148 33.8953C25.3629 33.529 26.0074 33.3335 26.6667 33.3335C27.3905 33.3357 28.0935 33.5765 28.6667 34.0185C28.7922 34.1094 28.9406 34.1635 29.0952 34.1746C29.2497 34.1858 29.4044 34.1537 29.5417 34.0819C29.6806 34.0083 29.7967 33.8981 29.8775 33.7633C29.9583 33.6284 30.0007 33.474 30 33.3169C30 33.1875 29.9699 33.0599 29.912 32.9442C29.8542 32.8285 29.7702 32.7278 29.6667 32.6502C29.29 32.3701 28.9769 32.0133 28.7482 31.6034C28.5195 31.1934 28.3803 30.7396 28.3399 30.2719C28.2994 29.8042 28.3586 29.3333 28.5135 28.8902C28.6685 28.447 28.9156 28.0418 29.2386 27.7012C29.5617 27.3606 29.9533 27.0924 30.3876 26.9142C30.8219 26.7361 31.2891 26.652 31.7582 26.6677C32.2274 26.6834 32.6879 26.7983 33.1094 27.005C33.5309 27.2117 33.9037 27.5055 34.2033 27.8669C34.2915 27.972 34.4042 28.0537 34.5315 28.1048C34.6588 28.1559 34.7967 28.1748 34.9331 28.1598C35.0694 28.1448 35.2 28.0964 35.3131 28.0188C35.4263 27.9412 35.5185 27.837 35.5817 27.7152C35.9958 26.8996 36.6276 26.2146 37.4072 25.7361C38.1868 25.2576 39.0836 25.0043 39.9983 25.0043C40.9131 25.0043 41.8099 25.2576 42.5895 25.7361C43.369 26.2146 44.0009 26.8996 44.415 27.7152C44.4781 27.837 44.5703 27.9413 44.6834 28.019C44.7965 28.0966 44.927 28.1451 45.0633 28.1602C45.1998 28.1752 45.3378 28.1563 45.4651 28.1051C45.5925 28.0539 45.7052 27.9721 45.7933 27.8669C46.0943 27.5102 46.4672 27.221 46.8875 27.0183C47.3079 26.8155 47.7663 26.7037 48.2328 26.6901C48.6993 26.6765 49.1634 26.7615 49.5948 26.9395C50.0263 27.1175 50.4153 27.3845 50.7365 27.7231C51.0577 28.0616 51.3039 28.4641 51.459 28.9043C51.6141 29.3445 51.6746 29.8124 51.6366 30.2776C51.5985 30.7427 51.4628 31.1946 51.2382 31.6037C51.0136 32.0128 50.7053 32.37 50.3333 32.6519C50.2292 32.7367 50.1452 32.8437 50.0876 32.9651C50.0299 33.0865 50 33.2192 50 33.3535C50 33.5083 50.0431 33.66 50.1245 33.7916C50.2058 33.9233 50.3222 34.0297 50.4607 34.0989C50.5991 34.1681 50.754 34.1974 50.9082 34.1835C51.0623 34.1696 51.2095 34.113 51.3333 34.0202C51.9063 33.5776 52.6093 33.3362 53.3333 33.3335C54.2174 33.3335 55.0652 33.6847 55.6904 34.3098C56.3155 34.935 56.6667 35.7828 56.6667 36.6669C56.6667 37.5509 56.3155 38.3988 55.6904 39.0239C55.0652 39.649 54.2174 40.0002 53.3333 40.0002Z"/>
</mask>
<path d="M53.0433 31.6752C53.236 31.1378 53.3341 30.5711 53.3333 30.0002C53.3333 28.6741 52.8066 27.4023 51.8689 26.4647C50.9312 25.527 49.6594 25.0002 48.3333 25.0002C47.2443 25.0016 46.1863 25.3625 45.3233 26.0269C44.7095 25.1918 43.9078 24.5128 42.9831 24.0448C42.0583 23.5768 41.0364 23.333 40 23.333C38.9636 23.333 37.9417 23.5768 37.0169 24.0448C36.0922 24.5128 35.2905 25.1918 34.6767 26.0269C33.8138 25.3625 32.7557 25.0016 31.6667 25.0002C30.3406 25.0002 29.0688 25.527 28.1311 26.4647C27.1935 27.4023 26.6667 28.6741 26.6667 30.0002C26.6669 30.5683 26.765 31.1321 26.9567 31.6669C25.6306 31.6284 24.3435 32.1183 23.3787 33.0288C22.4138 33.9393 21.8501 35.1958 21.8117 36.5219C21.7732 37.8479 22.2631 39.135 23.1736 40.0999C24.0841 41.0647 25.3406 41.6284 26.6667 41.6669C27.3879 41.6632 28.0996 41.5016 28.7517 41.1935C29.3417 41.6319 30.085 42.1302 30.8517 42.6552C32.3489 43.5563 33.7403 44.6224 35 45.8335C34.6149 48.6684 34.0662 51.4787 33.3567 54.2502C33.3389 54.3221 33.331 54.3961 33.3333 54.4702C33.375 55.8202 35.6117 56.5052 39.9767 56.5102H40.0233C44.3883 56.5102 46.625 55.8202 46.6667 54.4702C46.669 54.3961 46.6611 54.3221 46.6433 54.2502C45.9466 51.5087 45.3936 48.7327 44.9867 45.9335C46.1183 44.7716 47.3995 43.7655 48.7967 42.9419C49.7267 42.3119 50.6017 41.7169 51.2583 41.1985C51.9079 41.5032 52.6159 41.663 53.3333 41.6669C54.002 41.6667 54.6639 41.5323 55.2798 41.2718C55.8956 41.0113 56.453 40.6299 56.9189 40.1502C57.3847 39.6705 57.7496 39.1022 57.992 38.479C58.2343 37.8557 58.3492 37.1902 58.3298 36.5218C58.3104 35.8534 58.1571 35.1956 57.879 34.5875C57.6009 33.9794 57.2037 33.4332 56.7108 32.9813C56.2179 32.5294 55.6393 32.181 55.0094 31.9567C54.3795 31.7323 53.7109 31.6366 53.0433 31.6752V31.6752ZM47.8617 41.5619C44.7133 43.6952 43.3333 44.7435 43.3333 45.8335C43.687 48.6602 44.218 51.4618 44.9233 54.2219C43.3456 54.7789 41.6668 54.9914 40 54.8452C38.3332 54.9914 36.6544 54.7789 35.0767 54.2219C35.782 51.4618 36.3131 48.6602 36.6667 45.8335C36.6667 44.6935 35.1783 43.5685 31.785 41.2735C31.215 40.8885 30.675 40.5202 30.2 40.1835C30.8138 39.5707 31.2582 38.8093 31.49 37.9735C31.6267 38.0285 31.77 38.0585 31.91 38.1002C34.1383 41.0902 35.85 42.6002 37.0067 42.6002C37.1294 42.601 37.2514 42.5824 37.3683 42.5452C37.8017 42.4035 38.3217 41.9935 38.3333 40.8352C38.3567 38.6152 38.35 37.1685 38.3417 36.4119C39.4279 36.7043 40.5721 36.7043 41.6583 36.4119C41.6583 37.1602 41.6433 38.6152 41.6667 40.8352C41.6783 41.9935 42.1983 42.4035 42.6317 42.5452C42.7486 42.5824 42.8706 42.601 42.9933 42.6002C44.15 42.6002 45.8617 41.0835 48.09 38.1002C48.2283 38.0585 48.3717 38.0302 48.5067 37.9752C48.7403 38.8204 49.1927 39.589 49.8183 40.2035C49.2617 40.6135 48.5767 41.0769 47.8617 41.5619V41.5619ZM36.68 37.0002C36.68 37.8185 36.68 39.0702 36.6667 40.7919C35.7215 40.0408 34.8699 39.1791 34.13 38.2252C35.0774 38.062 35.9605 37.6378 36.68 37.0002V37.0002ZM43.3333 40.7969C43.315 39.0735 43.3167 37.8219 43.32 37.0035C44.0398 37.6409 44.9227 38.0656 45.87 38.2302C45.1296 39.1836 44.278 40.0453 43.3333 40.7969V40.7969ZM53.3333 40.0002C52.8939 40.0002 52.4588 39.9133 52.0531 39.7446C51.6474 39.5758 51.279 39.3285 50.9692 39.0168C50.6594 38.7052 50.4143 38.3353 50.248 37.9286C50.0816 37.5219 49.9974 37.0863 50 36.6469C50 36.4921 49.9569 36.3404 49.8755 36.2087C49.7942 36.0771 49.6778 35.9707 49.5394 35.9015C49.4009 35.8323 49.246 35.803 49.0918 35.8169C48.9377 35.8308 48.7905 35.8873 48.6667 35.9802C48.2651 36.2686 47.8052 36.4656 47.3194 36.5575C46.8335 36.6493 46.3335 36.6336 45.8543 36.5117C45.3751 36.3897 44.9285 36.1643 44.5457 35.8514C44.1628 35.5385 43.8532 35.1455 43.6383 34.7002C43.5907 34.5949 43.5216 34.5006 43.4355 34.4234C43.3494 34.3462 43.2482 34.2878 43.1383 34.2519C43.0287 34.2157 42.9126 34.203 42.7977 34.2148C42.6828 34.2266 42.5717 34.2625 42.4717 34.3202C41.7259 34.7619 40.8751 34.995 40.0083 34.995C39.1416 34.995 38.2908 34.7619 37.545 34.3202C37.4445 34.2636 37.3333 34.2285 37.2186 34.2172C37.1038 34.2058 36.9879 34.2184 36.8783 34.2541C36.7686 34.2898 36.6675 34.3479 36.5815 34.4247C36.4954 34.5015 36.4263 34.5953 36.3783 34.7002C36.1641 35.1482 35.8539 35.5436 35.4699 35.8585C35.0858 36.1734 34.6373 36.4 34.1559 36.5222C33.6746 36.6445 33.1723 36.6595 32.6845 36.5661C32.1967 36.4727 31.7355 36.2733 31.3333 35.9819C31.2088 35.89 31.0611 35.8346 30.9069 35.822C30.7526 35.8093 30.5979 35.8399 30.46 35.9102C30.3211 35.9817 30.2046 36.0902 30.1234 36.2237C30.0423 36.3573 29.9996 36.5106 30 36.6669C30 37.3261 29.8045 37.9706 29.4382 38.5188C29.072 39.0669 28.5514 39.4942 27.9423 39.7465C27.3332 39.9987 26.663 40.0648 26.0164 39.9361C25.3698 39.8075 24.7758 39.49 24.3097 39.0239C23.8435 38.5577 23.526 37.9638 23.3974 37.3172C23.2688 36.6706 23.3348 36.0003 23.5871 35.3912C23.8394 34.7822 24.2666 34.2616 24.8148 33.8953C25.3629 33.529 26.0074 33.3335 26.6667 33.3335C27.3905 33.3357 28.0935 33.5765 28.6667 34.0185C28.7922 34.1094 28.9406 34.1635 29.0952 34.1746C29.2497 34.1858 29.4044 34.1537 29.5417 34.0819C29.6806 34.0083 29.7967 33.8981 29.8775 33.7633C29.9583 33.6284 30.0007 33.474 30 33.3169C30 33.1875 29.9699 33.0599 29.912 32.9442C29.8542 32.8285 29.7702 32.7278 29.6667 32.6502C29.29 32.3701 28.9769 32.0133 28.7482 31.6034C28.5195 31.1934 28.3803 30.7396 28.3399 30.2719C28.2994 29.8042 28.3586 29.3333 28.5135 28.8902C28.6685 28.447 28.9156 28.0418 29.2386 27.7012C29.5617 27.3606 29.9533 27.0924 30.3876 26.9142C30.8219 26.7361 31.2891 26.652 31.7582 26.6677C32.2274 26.6834 32.6879 26.7983 33.1094 27.005C33.5309 27.2117 33.9037 27.5055 34.2033 27.8669C34.2915 27.972 34.4042 28.0537 34.5315 28.1048C34.6588 28.1559 34.7967 28.1748 34.9331 28.1598C35.0694 28.1448 35.2 28.0964 35.3131 28.0188C35.4263 27.9412 35.5185 27.837 35.5817 27.7152C35.9958 26.8996 36.6276 26.2146 37.4072 25.7361C38.1868 25.2576 39.0836 25.0043 39.9983 25.0043C40.9131 25.0043 41.8099 25.2576 42.5895 25.7361C43.369 26.2146 44.0009 26.8996 44.415 27.7152C44.4781 27.837 44.5703 27.9413 44.6834 28.019C44.7965 28.0966 44.927 28.1451 45.0633 28.1602C45.1998 28.1752 45.3378 28.1563 45.4651 28.1051C45.5925 28.0539 45.7052 27.9721 45.7933 27.8669C46.0943 27.5102 46.4672 27.221 46.8875 27.0183C47.3079 26.8155 47.7663 26.7037 48.2328 26.6901C48.6993 26.6765 49.1634 26.7615 49.5948 26.9395C50.0263 27.1175 50.4153 27.3845 50.7365 27.7231C51.0577 28.0616 51.3039 28.4641 51.459 28.9043C51.6141 29.3445 51.6746 29.8124 51.6366 30.2776C51.5985 30.7427 51.4628 31.1946 51.2382 31.6037C51.0136 32.0128 50.7053 32.37 50.3333 32.6519C50.2292 32.7367 50.1452 32.8437 50.0876 32.9651C50.0299 33.0865 50 33.2192 50 33.3535C50 33.5083 50.0431 33.66 50.1245 33.7916C50.2058 33.9233 50.3222 34.0297 50.4607 34.0989C50.5991 34.1681 50.754 34.1974 50.9082 34.1835C51.0623 34.1696 51.2095 34.113 51.3333 34.0202C51.9063 33.5776 52.6093 33.3362 53.3333 33.3335C54.2174 33.3335 55.0652 33.6847 55.6904 34.3098C56.3155 34.935 56.6667 35.7828 56.6667 36.6669C56.6667 37.5509 56.3155 38.3988 55.6904 39.0239C55.0652 39.649 54.2174 40.0002 53.3333 40.0002Z" fill="#1C3A27" stroke="#1C3A27" stroke-width="4" mask="url(#path-2-inside-1_708_300)"/>
</svg>
